<svg width="122" height="144" viewBox="0 0 122 144" fill="none" xmlns="http://www.w3.org/2000/svg">
<g clip-path="url(#clip0)">
<path d="M101.088 138.24C93.2832 145.814 84.672 144.634 76.464 141.062C67.7376 137.419 59.76 137.189 50.544 141.062C39.0672 146.016 32.976 144.576 26.064 138.24C-12.96 98.064 -7.2 36.864 37.152 34.56C47.9088 35.136 55.44 40.5072 61.776 40.9536C71.1936 39.0384 80.208 33.552 90.288 34.272C102.398 35.2512 111.456 40.032 117.504 48.6288C92.592 63.6048 98.496 96.4368 121.378 105.653C116.798 117.677 110.923 129.557 101.074 138.341L101.088 138.24ZM60.912 34.128C59.7456 16.272 74.2176 1.584 90.864 0.144C93.1536 20.736 72.144 36.144 60.912 34.128Z" fill="#8A95A7"/>
</g>
<defs>
<clipPath id="clip0">
<rect width="121.248" height="144" fill="white"/>
</clipPath>
</defs>
</svg>
