<svg width="144" height="144" viewBox="0 0 144 144" fill="none" xmlns="http://www.w3.org/2000/svg">
<path d="M71.9965 0.237429C32.3545 0.237429 0.216797 32.3743 0.216797 72.0163C0.216797 111.66 32.3545 143.794 71.9965 143.794C111.643 143.794 143.777 111.66 143.777 72.0163C143.777 32.3769 111.643 0.240857 71.9957 0.240857L71.9965 0.237429ZM104.914 103.763C103.629 105.872 100.869 106.54 98.76 105.246C81.9068 94.9517 60.6908 92.6203 35.7051 98.3289C33.2974 98.8774 30.8974 97.3689 30.3488 94.9603C29.7977 92.5517 31.3002 90.1517 33.7139 89.6031C61.0568 83.3537 84.5108 86.046 103.431 97.6089C105.54 98.9031 106.209 101.655 104.914 103.763ZM113.7 84.216C112.08 86.8517 108.634 87.6831 106.003 86.0631C86.7085 74.2011 57.2974 70.7666 34.4759 77.694C31.5162 78.588 28.3902 76.92 27.4919 73.9654C26.6005 71.0057 28.2694 67.8857 31.2239 66.9857C57.2922 59.076 89.7 62.9074 111.857 76.5231C114.489 78.1431 115.32 81.5889 113.7 84.2169V84.216ZM114.454 63.864C91.3199 50.1231 53.1514 48.8597 31.0637 55.5634C27.5168 56.6391 23.7659 54.6369 22.6911 51.09C21.6162 47.5414 23.6168 43.7931 27.1662 42.7149C52.5214 35.0177 94.6714 36.5049 121.306 52.3166C124.503 54.21 125.549 58.3303 123.655 61.5163C121.769 64.7066 117.638 65.7583 114.458 63.864H114.454Z" fill="#8A95A7"/>
</svg>
